:FULLY-SPECIFIED
:FORCE-ALL-JOINTS-BE-3DOF
:DEGREES
918
root -0.205654 14.1347 -36.2926 373.07 -26.6888 343.194
lfemur -65.574 31.9163 -0.898726
ltibia 70.8265 0 0
lfoot -7.54617 -9.98075 0
ltoes -10.186 0 0
rfemur 6.79623 -8.25744 13.0883
rtibia 36.907 0 0
rfoot -22.7458 -28.3777 0
rtoes -28.6043 0 0
lowerback 11.095 -0.0769291 7.04023
upperback -1.74515 1.29599 5.74329
thorax -8.11615 0.428844 1.94055
lowerneck -3.62064 7.72728 2.37555
upperneck 4.10261 10.2132 -0.587622
head 2.0624 5.11451 -0.277972
lclavicle 2.53308e-15 1.05143e-14 0
lhumerus 8.45641 -9.63132 74.1405
lradius 20.4953 0 0
lwrist -29.0216 0 0
lhand -27.809 30.0908 0
lfingers 7.12502 0 0
lthumb -1.20191 60.0446 0
rclavicle 2.53308e-15 1.05143e-14 0
rhumerus -76.9764 22.0295 -96.9471
rradius 110.295 0 0
rwrist -68.5349 0 0
rhand -11.4821 -24.2466 0
rfingers 7.12502 0 0
rthumb 14.5561 -53.7165 0
919
root -0.196398 14.1262 -36.2831 373.051 -26.6825 343.154
lfemur -65.6782 31.9965 -0.952116
ltibia 71.0044 0 0
lfoot -7.56082 -10.0614 0
ltoes -9.8382 0 0
rfemur 6.84536 -8.2938 13.0442
rtibia 36.9308 0 0
rfoot -22.7717 -28.323 0
rtoes -28.7169 0 0
lowerback 11.0674 -0.0936853 7.07673
upperback -1.7299 1.27761 5.80644
thorax -8.08547 0.420155 1.99084
lowerneck -3.62518 7.73566 2.41611
upperneck 4.17228 10.2242 -0.620026
head 2.09102 5.11978 -0.292027
lclavicle 4.21921e-15 6.92775e-15 0
lhumerus 8.00845 -11.429 74.7107
lradius 20.9026 0 0
lwrist -27.4251 0 0
lhand -27.4938 30.0811 0
lfingers 7.12502 0 0
lthumb -0.897435 60.0357 0
rclavicle 4.21921e-15 6.92775e-15 0
rhumerus -76.9729 22.0137 -96.9074
rradius 110.28 0 0
rwrist -68.5089 0 0
rhand -11.4861 -24.256 0
rfingers 7.12502 0 0
rthumb 14.5522 -53.7261 0
920
root -0.187141 14.1177 -36.2737 373.028 -26.6811 343.118
lfemur -65.7742 32.0726 -1.0032
ltibia 71.176 0 0
lfoot -7.56926 -10.1362 0
ltoes -9.4857 0 0
rfemur 6.88777 -8.33255 12.9979
rtibia 36.9661 0 0
rfoot -22.7979 -28.2671 0
rtoes -28.8284 0 0
lowerback 11.0412 -0.109947 7.1112
upperback -1.71397 1.2595 5.86916
thorax -8.05488 0.411683 2.0417
lowerneck -3.6308 7.74465 2.45708
upperneck 4.24404 10.236 -0.653721
head 2.12066 5.12544 -0.306405
lclavicle 5.89492e-15 3.27143e-15 0
lhumerus 7.55989 -13.2568 75.2764
lradius 21.3361 0 0
lwrist -25.7933 0 0
lhand -27.1801 30.0756 0
lfingers 7.12502 0 0
lthumb -0.594528 60.0307 0
rclavicle 5.89492e-15 3.27143e-15 0
rhumerus -76.9677 21.995 -96.8647
rradius 110.265 0 0
rwrist -68.4788 0 0
rhand -11.4893 -24.2656 0
rfingers 7.12502 0 0
rthumb 14.5491 -53.736 0
921
root -0.177885 14.1092 -36.2642 373.003 -26.6843 343.085
lfemur -65.8626 32.1448 -1.05213
ltibia 71.3417 0 0
lfoot -7.57211 -10.2054 0
ltoes -9.12952 0 0
rfemur 6.92401 -8.37341 12.9495
rtibia 37.012 0 0
rfoot -22.8244 -28.2103 0
rtoes -28.9387 0 0
lowerback 11.0163 -0.125758 7.14371
upperback -1.69744 1.24165 5.93142
thorax -8.02444 0.403408 2.09309
lowerneck -3.63743 7.75421 2.49836
upperneck 4.31765 10.2487 -0.688542
head 2.15121 5.13147 -0.32105
lclavicle 7.55536e-15 -4.42217e-16 0
lhumerus 7.115 -15.109 75.8345
lradius 21.7955 0 0
lwrist -24.1317 0 0
lhand -26.869 30.0742 0
lfingers 7.12502 0 0
lthumb -0.29407 60.0297 0
rclavicle 7.55536e-15 -4.42217e-16 0
rhumerus -76.9611 21.9738 -96.8194
rradius 110.252 0 0
rwrist -68.4447 0 0
rhand -11.4919 -24.2754 0
rfingers 7.12502 0 0
rthumb 14.5467 -53.746 0
